G04 #@! TF.GenerationSoftware,KiCad,Pcbnew,5.1.4+dfsg1-1*
G04 #@! TF.CreationDate,2020-03-31T10:31:59+02:00*
G04 #@! TF.ProjectId,alpha34,616c7068-6133-4342-9e6b-696361645f70,rev?*
G04 #@! TF.SameCoordinates,Original*
G04 #@! TF.FileFunction,Legend,Top*
G04 #@! TF.FilePolarity,Positive*
%FSLAX46Y46*%
G04 Gerber Fmt 4.6, Leading zero omitted, Abs format (unit mm)*
G04 Created by KiCad (PCBNEW 5.1.4+dfsg1-1) date 2020-03-31 10:31:59*
%MOMM*%
%LPD*%
G04 APERTURE LIST*
%ADD10C,0.150000*%
%ADD11O,1.802000X2.802000*%
%ADD12C,4.502000*%
%ADD13C,1.803800*%
%ADD14C,4.089800*%
%ADD15C,3.102000*%
%ADD16C,3.150000*%
G04 APERTURE END LIST*
D10*
X116031250Y-104631250D02*
X116031250Y-103631250D01*
X117031250Y-90631250D02*
X116031250Y-90631250D01*
X116031250Y-104631250D02*
X117031250Y-104631250D01*
X116031250Y-91631250D02*
X116031250Y-90631250D01*
X130031250Y-90631250D02*
X130031250Y-91631250D01*
X129031250Y-104631250D02*
X130031250Y-104631250D01*
X130031250Y-90631250D02*
X129031250Y-90631250D01*
X130031250Y-103631250D02*
X130031250Y-104631250D01*
X244618750Y-123681250D02*
X244618750Y-122681250D01*
X245618750Y-109681250D02*
X244618750Y-109681250D01*
X244618750Y-123681250D02*
X245618750Y-123681250D01*
X244618750Y-110681250D02*
X244618750Y-109681250D01*
X258618750Y-109681250D02*
X258618750Y-110681250D01*
X257618750Y-123681250D02*
X258618750Y-123681250D01*
X258618750Y-109681250D02*
X257618750Y-109681250D01*
X258618750Y-122681250D02*
X258618750Y-123681250D01*
X154163000Y-123713000D02*
X154163000Y-122713000D01*
X155163000Y-109713000D02*
X154163000Y-109713000D01*
X154163000Y-123713000D02*
X155163000Y-123713000D01*
X154163000Y-110713000D02*
X154163000Y-109713000D01*
X168163000Y-109713000D02*
X168163000Y-110713000D01*
X167163000Y-123713000D02*
X168163000Y-123713000D01*
X168163000Y-109713000D02*
X167163000Y-109713000D01*
X168163000Y-122713000D02*
X168163000Y-123713000D01*
X42212500Y-123681250D02*
X42212500Y-122681250D01*
X43212500Y-109681250D02*
X42212500Y-109681250D01*
X42212500Y-123681250D02*
X43212500Y-123681250D01*
X42212500Y-110681250D02*
X42212500Y-109681250D01*
X56212500Y-109681250D02*
X56212500Y-110681250D01*
X55212500Y-123681250D02*
X56212500Y-123681250D01*
X56212500Y-109681250D02*
X55212500Y-109681250D01*
X56212500Y-122681250D02*
X56212500Y-123681250D01*
X37450000Y-104631250D02*
X37450000Y-103631250D01*
X38450000Y-90631250D02*
X37450000Y-90631250D01*
X37450000Y-104631250D02*
X38450000Y-104631250D01*
X37450000Y-91631250D02*
X37450000Y-90631250D01*
X51450000Y-90631250D02*
X51450000Y-91631250D01*
X50450000Y-104631250D02*
X51450000Y-104631250D01*
X51450000Y-90631250D02*
X50450000Y-90631250D01*
X51450000Y-103631250D02*
X51450000Y-104631250D01*
X247000000Y-85581250D02*
X247000000Y-84581250D01*
X248000000Y-71581250D02*
X247000000Y-71581250D01*
X247000000Y-85581250D02*
X248000000Y-85581250D01*
X247000000Y-72581250D02*
X247000000Y-71581250D01*
X261000000Y-71581250D02*
X261000000Y-72581250D01*
X260000000Y-85581250D02*
X261000000Y-85581250D01*
X261000000Y-71581250D02*
X260000000Y-71581250D01*
X261000000Y-84581250D02*
X261000000Y-85581250D01*
X220806250Y-123681250D02*
X220806250Y-122681250D01*
X221806250Y-109681250D02*
X220806250Y-109681250D01*
X220806250Y-123681250D02*
X221806250Y-123681250D01*
X220806250Y-110681250D02*
X220806250Y-109681250D01*
X234806250Y-109681250D02*
X234806250Y-110681250D01*
X233806250Y-123681250D02*
X234806250Y-123681250D01*
X234806250Y-109681250D02*
X233806250Y-109681250D01*
X234806250Y-122681250D02*
X234806250Y-123681250D01*
X201756250Y-123681250D02*
X201756250Y-122681250D01*
X202756250Y-109681250D02*
X201756250Y-109681250D01*
X201756250Y-123681250D02*
X202756250Y-123681250D01*
X201756250Y-110681250D02*
X201756250Y-109681250D01*
X215756250Y-109681250D02*
X215756250Y-110681250D01*
X214756250Y-123681250D02*
X215756250Y-123681250D01*
X215756250Y-109681250D02*
X214756250Y-109681250D01*
X215756250Y-122681250D02*
X215756250Y-123681250D01*
X182706250Y-123681250D02*
X182706250Y-122681250D01*
X183706250Y-109681250D02*
X182706250Y-109681250D01*
X182706250Y-123681250D02*
X183706250Y-123681250D01*
X182706250Y-110681250D02*
X182706250Y-109681250D01*
X196706250Y-109681250D02*
X196706250Y-110681250D01*
X195706250Y-123681250D02*
X196706250Y-123681250D01*
X196706250Y-109681250D02*
X195706250Y-109681250D01*
X196706250Y-122681250D02*
X196706250Y-123681250D01*
X125556250Y-123681250D02*
X125556250Y-122681250D01*
X126556250Y-109681250D02*
X125556250Y-109681250D01*
X125556250Y-123681250D02*
X126556250Y-123681250D01*
X125556250Y-110681250D02*
X125556250Y-109681250D01*
X139556250Y-109681250D02*
X139556250Y-110681250D01*
X138556250Y-123681250D02*
X139556250Y-123681250D01*
X139556250Y-109681250D02*
X138556250Y-109681250D01*
X139556250Y-122681250D02*
X139556250Y-123681250D01*
X106506250Y-123681250D02*
X106506250Y-122681250D01*
X107506250Y-109681250D02*
X106506250Y-109681250D01*
X106506250Y-123681250D02*
X107506250Y-123681250D01*
X106506250Y-110681250D02*
X106506250Y-109681250D01*
X120506250Y-109681250D02*
X120506250Y-110681250D01*
X119506250Y-123681250D02*
X120506250Y-123681250D01*
X120506250Y-109681250D02*
X119506250Y-109681250D01*
X120506250Y-122681250D02*
X120506250Y-123681250D01*
X87456250Y-123681250D02*
X87456250Y-122681250D01*
X88456250Y-109681250D02*
X87456250Y-109681250D01*
X87456250Y-123681250D02*
X88456250Y-123681250D01*
X87456250Y-110681250D02*
X87456250Y-109681250D01*
X101456250Y-109681250D02*
X101456250Y-110681250D01*
X100456250Y-123681250D02*
X101456250Y-123681250D01*
X101456250Y-109681250D02*
X100456250Y-109681250D01*
X101456250Y-122681250D02*
X101456250Y-123681250D01*
X68406250Y-123681250D02*
X68406250Y-122681250D01*
X69406250Y-109681250D02*
X68406250Y-109681250D01*
X68406250Y-123681250D02*
X69406250Y-123681250D01*
X68406250Y-110681250D02*
X68406250Y-109681250D01*
X82406250Y-109681250D02*
X82406250Y-110681250D01*
X81406250Y-123681250D02*
X82406250Y-123681250D01*
X82406250Y-109681250D02*
X81406250Y-109681250D01*
X82406250Y-122681250D02*
X82406250Y-123681250D01*
X249381250Y-104631250D02*
X249381250Y-103631250D01*
X250381250Y-90631250D02*
X249381250Y-90631250D01*
X249381250Y-104631250D02*
X250381250Y-104631250D01*
X249381250Y-91631250D02*
X249381250Y-90631250D01*
X263381250Y-90631250D02*
X263381250Y-91631250D01*
X262381250Y-104631250D02*
X263381250Y-104631250D01*
X263381250Y-90631250D02*
X262381250Y-90631250D01*
X263381250Y-103631250D02*
X263381250Y-104631250D01*
X244331250Y-90631250D02*
X244331250Y-91631250D01*
X243331250Y-104631250D02*
X244331250Y-104631250D01*
X244331250Y-90631250D02*
X243331250Y-90631250D01*
X244331250Y-103631250D02*
X244331250Y-104631250D01*
X230331250Y-104631250D02*
X230331250Y-103631250D01*
X231331250Y-90631250D02*
X230331250Y-90631250D01*
X230331250Y-104631250D02*
X231331250Y-104631250D01*
X230331250Y-91631250D02*
X230331250Y-90631250D01*
X211281250Y-104631250D02*
X211281250Y-103631250D01*
X212281250Y-90631250D02*
X211281250Y-90631250D01*
X211281250Y-104631250D02*
X212281250Y-104631250D01*
X211281250Y-91631250D02*
X211281250Y-90631250D01*
X225281250Y-90631250D02*
X225281250Y-91631250D01*
X224281250Y-104631250D02*
X225281250Y-104631250D01*
X225281250Y-90631250D02*
X224281250Y-90631250D01*
X225281250Y-103631250D02*
X225281250Y-104631250D01*
X192231250Y-104631250D02*
X192231250Y-103631250D01*
X193231250Y-90631250D02*
X192231250Y-90631250D01*
X192231250Y-104631250D02*
X193231250Y-104631250D01*
X192231250Y-91631250D02*
X192231250Y-90631250D01*
X206231250Y-90631250D02*
X206231250Y-91631250D01*
X205231250Y-104631250D02*
X206231250Y-104631250D01*
X206231250Y-90631250D02*
X205231250Y-90631250D01*
X206231250Y-103631250D02*
X206231250Y-104631250D01*
X173181250Y-104631250D02*
X173181250Y-103631250D01*
X174181250Y-90631250D02*
X173181250Y-90631250D01*
X173181250Y-104631250D02*
X174181250Y-104631250D01*
X173181250Y-91631250D02*
X173181250Y-90631250D01*
X187181250Y-90631250D02*
X187181250Y-91631250D01*
X186181250Y-104631250D02*
X187181250Y-104631250D01*
X187181250Y-90631250D02*
X186181250Y-90631250D01*
X187181250Y-103631250D02*
X187181250Y-104631250D01*
X154131250Y-104631250D02*
X154131250Y-103631250D01*
X155131250Y-90631250D02*
X154131250Y-90631250D01*
X154131250Y-104631250D02*
X155131250Y-104631250D01*
X154131250Y-91631250D02*
X154131250Y-90631250D01*
X168131250Y-90631250D02*
X168131250Y-91631250D01*
X167131250Y-104631250D02*
X168131250Y-104631250D01*
X168131250Y-90631250D02*
X167131250Y-90631250D01*
X168131250Y-103631250D02*
X168131250Y-104631250D01*
X135081250Y-104631250D02*
X135081250Y-103631250D01*
X136081250Y-90631250D02*
X135081250Y-90631250D01*
X135081250Y-104631250D02*
X136081250Y-104631250D01*
X135081250Y-91631250D02*
X135081250Y-90631250D01*
X149081250Y-90631250D02*
X149081250Y-91631250D01*
X148081250Y-104631250D02*
X149081250Y-104631250D01*
X149081250Y-90631250D02*
X148081250Y-90631250D01*
X149081250Y-103631250D02*
X149081250Y-104631250D01*
X96981250Y-104631250D02*
X96981250Y-103631250D01*
X97981250Y-90631250D02*
X96981250Y-90631250D01*
X96981250Y-104631250D02*
X97981250Y-104631250D01*
X96981250Y-91631250D02*
X96981250Y-90631250D01*
X110981250Y-90631250D02*
X110981250Y-91631250D01*
X109981250Y-104631250D02*
X110981250Y-104631250D01*
X110981250Y-90631250D02*
X109981250Y-90631250D01*
X110981250Y-103631250D02*
X110981250Y-104631250D01*
X77931250Y-104631250D02*
X77931250Y-103631250D01*
X78931250Y-90631250D02*
X77931250Y-90631250D01*
X77931250Y-104631250D02*
X78931250Y-104631250D01*
X77931250Y-91631250D02*
X77931250Y-90631250D01*
X91931250Y-90631250D02*
X91931250Y-91631250D01*
X90931250Y-104631250D02*
X91931250Y-104631250D01*
X91931250Y-90631250D02*
X90931250Y-90631250D01*
X91931250Y-103631250D02*
X91931250Y-104631250D01*
X58881250Y-104631250D02*
X58881250Y-103631250D01*
X59881250Y-90631250D02*
X58881250Y-90631250D01*
X58881250Y-104631250D02*
X59881250Y-104631250D01*
X58881250Y-91631250D02*
X58881250Y-90631250D01*
X72881250Y-90631250D02*
X72881250Y-91631250D01*
X71881250Y-104631250D02*
X72881250Y-104631250D01*
X72881250Y-90631250D02*
X71881250Y-90631250D01*
X72881250Y-103631250D02*
X72881250Y-104631250D01*
X225568750Y-85581250D02*
X225568750Y-84581250D01*
X226568750Y-71581250D02*
X225568750Y-71581250D01*
X225568750Y-85581250D02*
X226568750Y-85581250D01*
X225568750Y-72581250D02*
X225568750Y-71581250D01*
X239568750Y-71581250D02*
X239568750Y-72581250D01*
X238568750Y-85581250D02*
X239568750Y-85581250D01*
X239568750Y-71581250D02*
X238568750Y-71581250D01*
X239568750Y-84581250D02*
X239568750Y-85581250D01*
X206518750Y-85581250D02*
X206518750Y-84581250D01*
X207518750Y-71581250D02*
X206518750Y-71581250D01*
X206518750Y-85581250D02*
X207518750Y-85581250D01*
X206518750Y-72581250D02*
X206518750Y-71581250D01*
X220518750Y-71581250D02*
X220518750Y-72581250D01*
X219518750Y-85581250D02*
X220518750Y-85581250D01*
X220518750Y-71581250D02*
X219518750Y-71581250D01*
X220518750Y-84581250D02*
X220518750Y-85581250D01*
X187468750Y-85581250D02*
X187468750Y-84581250D01*
X188468750Y-71581250D02*
X187468750Y-71581250D01*
X187468750Y-85581250D02*
X188468750Y-85581250D01*
X187468750Y-72581250D02*
X187468750Y-71581250D01*
X201468750Y-71581250D02*
X201468750Y-72581250D01*
X200468750Y-85581250D02*
X201468750Y-85581250D01*
X201468750Y-71581250D02*
X200468750Y-71581250D01*
X201468750Y-84581250D02*
X201468750Y-85581250D01*
X168418750Y-85581250D02*
X168418750Y-84581250D01*
X169418750Y-71581250D02*
X168418750Y-71581250D01*
X168418750Y-85581250D02*
X169418750Y-85581250D01*
X168418750Y-72581250D02*
X168418750Y-71581250D01*
X182418750Y-71581250D02*
X182418750Y-72581250D01*
X181418750Y-85581250D02*
X182418750Y-85581250D01*
X182418750Y-71581250D02*
X181418750Y-71581250D01*
X182418750Y-84581250D02*
X182418750Y-85581250D01*
X149368750Y-85581250D02*
X149368750Y-84581250D01*
X150368750Y-71581250D02*
X149368750Y-71581250D01*
X149368750Y-85581250D02*
X150368750Y-85581250D01*
X149368750Y-72581250D02*
X149368750Y-71581250D01*
X163368750Y-71581250D02*
X163368750Y-72581250D01*
X162368750Y-85581250D02*
X163368750Y-85581250D01*
X163368750Y-71581250D02*
X162368750Y-71581250D01*
X163368750Y-84581250D02*
X163368750Y-85581250D01*
X130318750Y-85581250D02*
X130318750Y-84581250D01*
X131318750Y-71581250D02*
X130318750Y-71581250D01*
X130318750Y-85581250D02*
X131318750Y-85581250D01*
X130318750Y-72581250D02*
X130318750Y-71581250D01*
X144318750Y-71581250D02*
X144318750Y-72581250D01*
X143318750Y-85581250D02*
X144318750Y-85581250D01*
X144318750Y-71581250D02*
X143318750Y-71581250D01*
X144318750Y-84581250D02*
X144318750Y-85581250D01*
X111268750Y-85581250D02*
X111268750Y-84581250D01*
X112268750Y-71581250D02*
X111268750Y-71581250D01*
X111268750Y-85581250D02*
X112268750Y-85581250D01*
X111268750Y-72581250D02*
X111268750Y-71581250D01*
X125268750Y-71581250D02*
X125268750Y-72581250D01*
X124268750Y-85581250D02*
X125268750Y-85581250D01*
X125268750Y-71581250D02*
X124268750Y-71581250D01*
X125268750Y-84581250D02*
X125268750Y-85581250D01*
X92218750Y-85581250D02*
X92218750Y-84581250D01*
X93218750Y-71581250D02*
X92218750Y-71581250D01*
X92218750Y-85581250D02*
X93218750Y-85581250D01*
X92218750Y-72581250D02*
X92218750Y-71581250D01*
X106218750Y-71581250D02*
X106218750Y-72581250D01*
X105218750Y-85581250D02*
X106218750Y-85581250D01*
X106218750Y-71581250D02*
X105218750Y-71581250D01*
X106218750Y-84581250D02*
X106218750Y-85581250D01*
X73168750Y-85581250D02*
X73168750Y-84581250D01*
X74168750Y-71581250D02*
X73168750Y-71581250D01*
X73168750Y-85581250D02*
X74168750Y-85581250D01*
X73168750Y-72581250D02*
X73168750Y-71581250D01*
X87168750Y-71581250D02*
X87168750Y-72581250D01*
X86168750Y-85581250D02*
X87168750Y-85581250D01*
X87168750Y-71581250D02*
X86168750Y-71581250D01*
X87168750Y-84581250D02*
X87168750Y-85581250D01*
X54118750Y-85581250D02*
X54118750Y-84581250D01*
X55118750Y-71581250D02*
X54118750Y-71581250D01*
X54118750Y-85581250D02*
X55118750Y-85581250D01*
X54118750Y-72581250D02*
X54118750Y-71581250D01*
X68118750Y-71581250D02*
X68118750Y-72581250D01*
X67118750Y-85581250D02*
X68118750Y-85581250D01*
X68118750Y-71581250D02*
X67118750Y-71581250D01*
X68118750Y-84581250D02*
X68118750Y-85581250D01*
X35068750Y-85581250D02*
X35068750Y-84581250D01*
X36068750Y-71581250D02*
X35068750Y-71581250D01*
X35068750Y-85581250D02*
X36068750Y-85581250D01*
X35068750Y-72581250D02*
X35068750Y-71581250D01*
X49068750Y-71581250D02*
X49068750Y-72581250D01*
X48068750Y-85581250D02*
X49068750Y-85581250D01*
X49068750Y-71581250D02*
X48068750Y-71581250D01*
X49068750Y-84581250D02*
X49068750Y-85581250D01*
X216947916Y-105996130D02*
X216614583Y-105519940D01*
X216376488Y-105996130D02*
X216376488Y-104996130D01*
X216757440Y-104996130D01*
X216852678Y-105043750D01*
X216900297Y-105091369D01*
X216947916Y-105186607D01*
X216947916Y-105329464D01*
X216900297Y-105424702D01*
X216852678Y-105472321D01*
X216757440Y-105519940D01*
X216376488Y-105519940D01*
X217376488Y-105472321D02*
X217709821Y-105472321D01*
X217852678Y-105996130D02*
X217376488Y-105996130D01*
X217376488Y-104996130D01*
X217852678Y-104996130D01*
X218614583Y-105472321D02*
X218281250Y-105472321D01*
X218281250Y-105996130D02*
X218281250Y-104996130D01*
X218757440Y-104996130D01*
X219281250Y-104996130D02*
X219281250Y-105234226D01*
X219043154Y-105138988D02*
X219281250Y-105234226D01*
X219519345Y-105138988D01*
X219138392Y-105424702D02*
X219281250Y-105234226D01*
X219424107Y-105424702D01*
X220043154Y-104996130D02*
X220043154Y-105234226D01*
X219805059Y-105138988D02*
X220043154Y-105234226D01*
X220281250Y-105138988D01*
X219900297Y-105424702D02*
X220043154Y-105234226D01*
X220186011Y-105424702D01*
X83597916Y-105996130D02*
X83264583Y-105519940D01*
X83026488Y-105996130D02*
X83026488Y-104996130D01*
X83407440Y-104996130D01*
X83502678Y-105043750D01*
X83550297Y-105091369D01*
X83597916Y-105186607D01*
X83597916Y-105329464D01*
X83550297Y-105424702D01*
X83502678Y-105472321D01*
X83407440Y-105519940D01*
X83026488Y-105519940D01*
X84026488Y-105472321D02*
X84359821Y-105472321D01*
X84502678Y-105996130D02*
X84026488Y-105996130D01*
X84026488Y-104996130D01*
X84502678Y-104996130D01*
X85264583Y-105472321D02*
X84931250Y-105472321D01*
X84931250Y-105996130D02*
X84931250Y-104996130D01*
X85407440Y-104996130D01*
X85931250Y-104996130D02*
X85931250Y-105234226D01*
X85693154Y-105138988D02*
X85931250Y-105234226D01*
X86169345Y-105138988D01*
X85788392Y-105424702D02*
X85931250Y-105234226D01*
X86074107Y-105424702D01*
X86693154Y-104996130D02*
X86693154Y-105234226D01*
X86455059Y-105138988D02*
X86693154Y-105234226D01*
X86931250Y-105138988D01*
X86550297Y-105424702D02*
X86693154Y-105234226D01*
X86836011Y-105424702D01*
X221710416Y-84564880D02*
X221377083Y-84088690D01*
X221138988Y-84564880D02*
X221138988Y-83564880D01*
X221519940Y-83564880D01*
X221615178Y-83612500D01*
X221662797Y-83660119D01*
X221710416Y-83755357D01*
X221710416Y-83898214D01*
X221662797Y-83993452D01*
X221615178Y-84041071D01*
X221519940Y-84088690D01*
X221138988Y-84088690D01*
X222138988Y-84041071D02*
X222472321Y-84041071D01*
X222615178Y-84564880D02*
X222138988Y-84564880D01*
X222138988Y-83564880D01*
X222615178Y-83564880D01*
X223377083Y-84041071D02*
X223043750Y-84041071D01*
X223043750Y-84564880D02*
X223043750Y-83564880D01*
X223519940Y-83564880D01*
X224043750Y-83564880D02*
X224043750Y-83802976D01*
X223805654Y-83707738D02*
X224043750Y-83802976D01*
X224281845Y-83707738D01*
X223900892Y-83993452D02*
X224043750Y-83802976D01*
X224186607Y-83993452D01*
X224805654Y-83564880D02*
X224805654Y-83802976D01*
X224567559Y-83707738D02*
X224805654Y-83802976D01*
X225043750Y-83707738D01*
X224662797Y-83993452D02*
X224805654Y-83802976D01*
X224948511Y-83993452D01*
X69310416Y-84564880D02*
X68977083Y-84088690D01*
X68738988Y-84564880D02*
X68738988Y-83564880D01*
X69119940Y-83564880D01*
X69215178Y-83612500D01*
X69262797Y-83660119D01*
X69310416Y-83755357D01*
X69310416Y-83898214D01*
X69262797Y-83993452D01*
X69215178Y-84041071D01*
X69119940Y-84088690D01*
X68738988Y-84088690D01*
X69738988Y-84041071D02*
X70072321Y-84041071D01*
X70215178Y-84564880D02*
X69738988Y-84564880D01*
X69738988Y-83564880D01*
X70215178Y-83564880D01*
X70977083Y-84041071D02*
X70643750Y-84041071D01*
X70643750Y-84564880D02*
X70643750Y-83564880D01*
X71119940Y-83564880D01*
X71643750Y-83564880D02*
X71643750Y-83802976D01*
X71405654Y-83707738D02*
X71643750Y-83802976D01*
X71881845Y-83707738D01*
X71500892Y-83993452D02*
X71643750Y-83802976D01*
X71786607Y-83993452D01*
X72405654Y-83564880D02*
X72405654Y-83802976D01*
X72167559Y-83707738D02*
X72405654Y-83802976D01*
X72643750Y-83707738D01*
X72262797Y-83993452D02*
X72405654Y-83802976D01*
X72548511Y-83993452D01*
%LPC*%
D11*
X240031250Y-74477000D03*
X247331250Y-74477000D03*
X247331250Y-69977000D03*
X240031250Y-69977000D03*
D12*
X218281250Y-108743750D03*
X84931250Y-108743750D03*
X223043750Y-87312500D03*
X70643750Y-87312500D03*
D13*
X128111250Y-97631250D03*
X117951250Y-97631250D03*
D14*
X123031250Y-97631250D03*
D15*
X126841250Y-100171250D03*
X120491250Y-102711250D03*
D16*
X173031250Y-123666250D03*
X149231250Y-123666250D03*
D14*
X173031250Y-108426250D03*
X149231250Y-108426250D03*
D13*
X256698750Y-116681250D03*
X246538750Y-116681250D03*
D14*
X251618750Y-116681250D03*
D15*
X255428750Y-119221250D03*
X249078750Y-121761250D03*
D13*
X166243000Y-116713000D03*
X156083000Y-116713000D03*
D14*
X161163000Y-116713000D03*
D15*
X164973000Y-119253000D03*
X158623000Y-121793000D03*
D13*
X54292500Y-116681250D03*
X44132500Y-116681250D03*
D14*
X49212500Y-116681250D03*
D15*
X53022500Y-119221250D03*
X46672500Y-121761250D03*
D13*
X49530000Y-97631250D03*
X39370000Y-97631250D03*
D14*
X44450000Y-97631250D03*
D15*
X48260000Y-100171250D03*
X41910000Y-102711250D03*
D13*
X259080000Y-78581250D03*
X248920000Y-78581250D03*
D14*
X254000000Y-78581250D03*
D15*
X257810000Y-81121250D03*
X251460000Y-83661250D03*
D13*
X232886250Y-116681250D03*
X222726250Y-116681250D03*
D14*
X227806250Y-116681250D03*
D15*
X231616250Y-119221250D03*
X225266250Y-121761250D03*
D13*
X213836250Y-116681250D03*
X203676250Y-116681250D03*
D14*
X208756250Y-116681250D03*
D15*
X212566250Y-119221250D03*
X206216250Y-121761250D03*
D13*
X194786250Y-116681250D03*
X184626250Y-116681250D03*
D14*
X189706250Y-116681250D03*
D15*
X193516250Y-119221250D03*
X187166250Y-121761250D03*
D13*
X137636250Y-116681250D03*
X127476250Y-116681250D03*
D14*
X132556250Y-116681250D03*
D15*
X136366250Y-119221250D03*
X130016250Y-121761250D03*
D13*
X118586250Y-116681250D03*
X108426250Y-116681250D03*
D14*
X113506250Y-116681250D03*
D15*
X117316250Y-119221250D03*
X110966250Y-121761250D03*
D13*
X99536250Y-116681250D03*
X89376250Y-116681250D03*
D14*
X94456250Y-116681250D03*
D15*
X98266250Y-119221250D03*
X91916250Y-121761250D03*
D13*
X80486250Y-116681250D03*
X70326250Y-116681250D03*
D14*
X75406250Y-116681250D03*
D15*
X79216250Y-119221250D03*
X72866250Y-121761250D03*
D13*
X261461250Y-97631250D03*
X251301250Y-97631250D03*
D14*
X256381250Y-97631250D03*
D15*
X260191250Y-100171250D03*
X253841250Y-102711250D03*
D13*
X232251250Y-97631250D03*
X242411250Y-97631250D03*
D14*
X237331250Y-97631250D03*
D15*
X233521250Y-95091250D03*
X239871250Y-92551250D03*
D13*
X223361250Y-97631250D03*
X213201250Y-97631250D03*
D14*
X218281250Y-97631250D03*
D15*
X222091250Y-100171250D03*
X215741250Y-102711250D03*
D13*
X204311250Y-97631250D03*
X194151250Y-97631250D03*
D14*
X199231250Y-97631250D03*
D15*
X203041250Y-100171250D03*
X196691250Y-102711250D03*
D13*
X185261250Y-97631250D03*
X175101250Y-97631250D03*
D14*
X180181250Y-97631250D03*
D15*
X183991250Y-100171250D03*
X177641250Y-102711250D03*
D13*
X166211250Y-97631250D03*
X156051250Y-97631250D03*
D14*
X161131250Y-97631250D03*
D15*
X164941250Y-100171250D03*
X158591250Y-102711250D03*
D13*
X147161250Y-97631250D03*
X137001250Y-97631250D03*
D14*
X142081250Y-97631250D03*
D15*
X145891250Y-100171250D03*
X139541250Y-102711250D03*
D13*
X109061250Y-97631250D03*
X98901250Y-97631250D03*
D14*
X103981250Y-97631250D03*
D15*
X107791250Y-100171250D03*
X101441250Y-102711250D03*
D13*
X90011250Y-97631250D03*
X79851250Y-97631250D03*
D14*
X84931250Y-97631250D03*
D15*
X88741250Y-100171250D03*
X82391250Y-102711250D03*
D13*
X70961250Y-97631250D03*
X60801250Y-97631250D03*
D14*
X65881250Y-97631250D03*
D15*
X69691250Y-100171250D03*
X63341250Y-102711250D03*
D13*
X237648750Y-78581250D03*
X227488750Y-78581250D03*
D14*
X232568750Y-78581250D03*
D15*
X236378750Y-81121250D03*
X230028750Y-83661250D03*
D13*
X218598750Y-78581250D03*
X208438750Y-78581250D03*
D14*
X213518750Y-78581250D03*
D15*
X217328750Y-81121250D03*
X210978750Y-83661250D03*
D13*
X199548750Y-78581250D03*
X189388750Y-78581250D03*
D14*
X194468750Y-78581250D03*
D15*
X198278750Y-81121250D03*
X191928750Y-83661250D03*
D13*
X180498750Y-78581250D03*
X170338750Y-78581250D03*
D14*
X175418750Y-78581250D03*
D15*
X179228750Y-81121250D03*
X172878750Y-83661250D03*
D13*
X161448750Y-78581250D03*
X151288750Y-78581250D03*
D14*
X156368750Y-78581250D03*
D15*
X160178750Y-81121250D03*
X153828750Y-83661250D03*
D13*
X142398750Y-78581250D03*
X132238750Y-78581250D03*
D14*
X137318750Y-78581250D03*
D15*
X141128750Y-81121250D03*
X134778750Y-83661250D03*
D13*
X123348750Y-78581250D03*
X113188750Y-78581250D03*
D14*
X118268750Y-78581250D03*
D15*
X122078750Y-81121250D03*
X115728750Y-83661250D03*
D13*
X104298750Y-78581250D03*
X94138750Y-78581250D03*
D14*
X99218750Y-78581250D03*
D15*
X103028750Y-81121250D03*
X96678750Y-83661250D03*
D13*
X85248750Y-78581250D03*
X75088750Y-78581250D03*
D14*
X80168750Y-78581250D03*
D15*
X83978750Y-81121250D03*
X77628750Y-83661250D03*
D13*
X66198750Y-78581250D03*
X56038750Y-78581250D03*
D14*
X61118750Y-78581250D03*
D15*
X64928750Y-81121250D03*
X58578750Y-83661250D03*
D13*
X47148750Y-78581250D03*
X36988750Y-78581250D03*
D14*
X42068750Y-78581250D03*
D15*
X45878750Y-81121250D03*
X39528750Y-83661250D03*
M02*
