M48
METRIC,TZ
T1C0.400
T2C0.700
T3C2.200
T4C1.702
T5C3.000
T6C3.048
T7C3.988
%
G90
G05
T1
X52388Y-83344
X57150Y-102394
X68262Y-118269
X75406Y-86519
X76200Y-102394
X87313Y-118269
X94456Y-86519
X95250Y-102394
X106363Y-118269
X113506Y-86519
X113506Y-108744
X114300Y-102394
X125413Y-118269
X132556Y-86519
X133350Y-102394
X151606Y-86519
X152400Y-102394
X153987Y-118269
X157956Y-115094
X158750Y-124619
X160338Y-108744
X170656Y-86519
X171450Y-102394
X179388Y-124619
X180975Y-121793
X189706Y-86519
X189706Y-109538
X190500Y-102394
X198438Y-123031
X199231Y-92869
X200025Y-121666
X208756Y-86519
X209550Y-102394
X213519Y-73819
X217488Y-122238
X219075Y-121666
X223838Y-108744
X227806Y-86519
X229394Y-108744
X234315Y-104991
X235204Y-104140
X236728Y-89662
X237379Y-119015
X238633Y-101727
X239522Y-110744
X241808Y-122936
X242576Y-123576
X242824Y-112522
X243416Y-124266
X243637Y-94564
X244602Y-100076
X245641Y-105913
X246571Y-113709
X247650Y-95250
X248339Y-111941
X248495Y-109633
X251336Y-112525
X252413Y-92869
X254000Y-73819
X258763Y-91281
T3
X218281Y-108744
X84931Y-108744
X70644Y-87313
X223044Y-87313
T4
X75089Y-78581
X85249Y-78581
X132239Y-78581
X142399Y-78581
X36989Y-78581
X47149Y-78581
X184626Y-116681
X194786Y-116681
X170339Y-78581
X180499Y-78581
X232251Y-97631
X242411Y-97631
X117951Y-97631
X128111Y-97631
X94139Y-78581
X104299Y-78581
X213201Y-97631
X223361Y-97631
X208439Y-78581
X218599Y-78581
X203676Y-116681
X213836Y-116681
X246539Y-116681
X256699Y-116681
X44133Y-116681
X54293Y-116681
X39370Y-97631
X49530Y-97631
X108426Y-116681
X118586Y-116681
X127476Y-116681
X137636Y-116681
X156083Y-116713
X166243Y-116713
X79851Y-97631
X90011Y-97631
X189389Y-78581
X199549Y-78581
X222726Y-116681
X232886Y-116681
X156051Y-97631
X166211Y-97631
X248920Y-78581
X259080Y-78581
X70326Y-116681
X80486Y-116681
X89376Y-116681
X99536Y-116681
X137001Y-97631
X147161Y-97631
X151289Y-78581
X161449Y-78581
X113189Y-78581
X123349Y-78581
X98901Y-97631
X109061Y-97631
X227489Y-78581
X237649Y-78581
X60801Y-97631
X70961Y-97631
X175101Y-97631
X185261Y-97631
X56039Y-78581
X66199Y-78581
X194151Y-97631
X204311Y-97631
X251301Y-97631
X261461Y-97631
T5
X251460Y-83661
X257810Y-81121
X72866Y-121761
X79216Y-119221
X91916Y-121761
X98266Y-119221
X139541Y-102711
X145891Y-100171
X153829Y-83661
X160179Y-81121
X115729Y-83661
X122079Y-81121
X101441Y-102711
X107791Y-100171
X230029Y-83661
X236379Y-81121
X63341Y-102711
X69691Y-100171
X177641Y-102711
X183991Y-100171
X58579Y-83661
X64929Y-81121
X196691Y-102711
X203041Y-100171
X253841Y-102711
X260191Y-100171
X77629Y-83661
X83979Y-81121
X134779Y-83661
X141129Y-81121
X39529Y-83661
X45879Y-81121
X187166Y-121761
X193516Y-119221
X172879Y-83661
X179229Y-81121
X233521Y-95091
X239871Y-92551
X120491Y-102711
X126841Y-100171
X96679Y-83661
X103029Y-81121
X215741Y-102711
X222091Y-100171
X210979Y-83661
X217329Y-81121
X206216Y-121761
X212566Y-119221
X249079Y-121761
X255429Y-119221
X46673Y-121761
X53023Y-119221
X41910Y-102711
X48260Y-100171
X110966Y-121761
X117316Y-119221
X130016Y-121761
X136366Y-119221
X158623Y-121793
X164973Y-119253
X82391Y-102711
X88741Y-100171
X191929Y-83661
X198279Y-81121
X225266Y-121761
X231616Y-119221
X158591Y-102711
X164941Y-100171
T6
X149231Y-123666
X173031Y-123666
T7
X75406Y-116681
X94456Y-116681
X142081Y-97631
X156369Y-78581
X118269Y-78581
X103981Y-97631
X232569Y-78581
X65881Y-97631
X180181Y-97631
X61119Y-78581
X199231Y-97631
X256381Y-97631
X80169Y-78581
X149231Y-108426
X173031Y-108426
X137319Y-78581
X42069Y-78581
X189706Y-116681
X175419Y-78581
X237331Y-97631
X123031Y-97631
X99219Y-78581
X218281Y-97631
X213519Y-78581
X208756Y-116681
X251619Y-116681
X49213Y-116681
X44450Y-97631
X113506Y-116681
X132556Y-116681
X161163Y-116713
X84931Y-97631
X194469Y-78581
X227806Y-116681
X161131Y-97631
X254000Y-78581
T2
G00X240031Y-69377
M15
G01X240031Y-70577
M16
G05
G00X240031Y-73877
M15
G01X240031Y-75077
M16
G05
G00X247331Y-69377
M15
G01X247331Y-70577
M16
G05
G00X247331Y-73877
M15
G01X247331Y-75077
M16
G05
T0
M30
